<svg width="20" height="12" viewBox="0 0 20 12" fill="none" xmlns="http://www.w3.org/2000/svg">
<path d="M9.989 11.4717C9.75795 11.4697 9.53672 11.378 9.37198 11.216L0.644704 2.48875C0.48573 2.32415 0.397764 2.1037 0.399752 1.87487C0.401741 1.64605 0.493524 1.42716 0.655335 1.26535C0.817146 1.10353 1.03604 1.01175 1.26486 1.00976C1.49369 1.00777 1.71414 1.09574 1.87874 1.25471L9.989 9.36497L18.0992 1.25471C18.1798 1.17136 18.2761 1.10487 18.3825 1.05914C18.489 1.0134 18.6035 0.989321 18.7194 0.988314C18.8353 0.987307 18.9502 1.00939 19.0575 1.05327C19.1647 1.09715 19.2622 1.16195 19.3441 1.2439C19.426 1.32584 19.4909 1.42328 19.5347 1.53054C19.5786 1.63779 19.6007 1.75271 19.5997 1.86859C19.5987 1.98447 19.5746 2.09899 19.5289 2.20547C19.4831 2.31194 19.4166 2.40824 19.3333 2.48875L10.606 11.216C10.4413 11.378 10.22 11.4697 9.989 11.4717Z" fill="#B9BBBD"/>
</svg>
