<svg width="5" height="6" viewBox="0 0 5 6" fill="none" xmlns="http://www.w3.org/2000/svg">
<path d="M0.393051 2.7956C0.481299 2.88455 0.600974 2.93451 0.725757 2.93451C0.85054 2.93451 0.970214 2.88455 1.05846 2.7956L1.90223 1.94494L1.90223 5.06957C1.90223 5.1954 1.95181 5.31607 2.04006 5.40505C2.12831 5.49402 2.24801 5.54401 2.37282 5.54401C2.49762 5.54401 2.61732 5.49402 2.70557 5.40505C2.79382 5.31607 2.8434 5.1954 2.8434 5.06957L2.8434 1.94494L3.68717 2.7956C3.77592 2.88203 3.89479 2.92985 4.01818 2.92877C4.14157 2.92768 4.2596 2.87779 4.34685 2.78982C4.4341 2.70186 4.48359 2.58287 4.48466 2.45847C4.48573 2.33408 4.4383 2.21423 4.35258 2.12475L2.70552 0.46423C2.61727 0.375287 2.4976 0.325322 2.37282 0.325322C2.24803 0.325322 2.12836 0.375287 2.04011 0.46423L0.393051 2.12475C0.304829 2.21372 0.255269 2.33438 0.255269 2.46018C0.255269 2.58598 0.304829 2.70663 0.393051 2.7956Z" fill="#00A389"/>
</svg>
