<svg width="26" height="28" viewBox="0 0 26 28" fill="none" xmlns="http://www.w3.org/2000/svg">
<path d="M4.5 27.75H21.5C22.6272 27.75 23.7082 27.3023 24.5052 26.5052C25.3022 25.7082 25.75 24.6272 25.75 23.5V6.50004C25.75 5.37287 25.3022 4.29187 24.5052 3.49484C23.7082 2.69781 22.6272 2.25004 21.5 2.25004H20.0833C20.0833 1.87432 19.9341 1.51398 19.6684 1.24831C19.4027 0.98263 19.0424 0.833374 18.6667 0.833374C18.2909 0.833374 17.9306 0.98263 17.6649 1.24831C17.3993 1.51398 17.25 1.87432 17.25 2.25004H8.75C8.75 1.87432 8.60074 1.51398 8.33507 1.24831C8.06939 0.98263 7.70906 0.833374 7.33333 0.833374C6.95761 0.833374 6.59728 0.98263 6.3316 1.24831C6.06592 1.51398 5.91667 1.87432 5.91667 2.25004H4.5C3.37283 2.25004 2.29183 2.69781 1.4948 3.49484C0.697767 4.29187 0.25 5.37287 0.25 6.50004V23.5C0.25 24.6272 0.697767 25.7082 1.4948 26.5052C2.29183 27.3023 3.37283 27.75 4.5 27.75ZM3.08333 6.50004C3.08333 6.12432 3.23259 5.76398 3.49827 5.49831C3.76394 5.23263 4.12428 5.08337 4.5 5.08337H5.91667V6.50004C5.91667 6.87576 6.06592 7.2361 6.3316 7.50178C6.59728 7.76745 6.95761 7.91671 7.33333 7.91671C7.70906 7.91671 8.06939 7.76745 8.33507 7.50178C8.60074 7.2361 8.75 6.87576 8.75 6.50004V5.08337H17.25V6.50004C17.25 6.87576 17.3993 7.2361 17.6649 7.50178C17.9306 7.76745 18.2909 7.91671 18.6667 7.91671C19.0424 7.91671 19.4027 7.76745 19.6684 7.50178C19.9341 7.2361 20.0833 6.87576 20.0833 6.50004V5.08337H21.5C21.8757 5.08337 22.2361 5.23263 22.5017 5.49831C22.7674 5.76398 22.9167 6.12432 22.9167 6.50004V10.75H3.08333V6.50004ZM3.08333 13.5834H22.9167V23.5C22.9167 23.8758 22.7674 24.2361 22.5017 24.5018C22.2361 24.7675 21.8757 24.9167 21.5 24.9167H4.5C4.12428 24.9167 3.76394 24.7675 3.49827 24.5018C3.23259 24.2361 3.08333 23.8758 3.08333 23.5V13.5834Z" fill="#2D9CDB"/>
</svg>
