<svg width="20" height="20" viewBox="0 0 14 18" fill="none" xmlns="http://www.w3.org/2000/svg">
<path d="M7.54171 0.611377C7.39076 0.482289 7.19866 0.411362 7.00004 0.411377H1.16671C0.945694 0.411377 0.733732 0.499174 0.577452 0.655455C0.421172 0.811735 0.333374 1.0237 0.333374 1.24471V16.2447C0.333374 16.4657 0.421172 16.6777 0.577452 16.834C0.733732 16.9902 0.945694 17.078 1.16671 17.078H12.8334C13.0544 17.078 13.2664 16.9902 13.4226 16.834C13.5789 16.6777 13.6667 16.4657 13.6667 16.2447V6.24471C13.6667 6.12434 13.6406 6.0054 13.5903 5.89607C13.5399 5.78674 13.4665 5.68962 13.375 5.61138L7.54171 0.611377ZM7.83337 3.05304L10.5834 5.41138H7.83337V3.05304ZM12 15.4114H2.00004V2.07804H6.16671V6.24471C6.16671 6.46572 6.25451 6.67769 6.41079 6.83397C6.56707 6.99025 6.77903 7.07804 7.00004 7.07804H12V15.4114Z" fill="#464255"/>
</svg>
